<?xml version="1.0" encoding="UTF-8" standalone="no"?>
<!-- Created with Inkscape (http://www.inkscape.org/) -->

<svg
   xmlns:dc="http://purl.org/dc/elements/1.1/"
   xmlns:cc="http://creativecommons.org/ns#"
   xmlns:rdf="http://www.w3.org/1999/02/22-rdf-syntax-ns#"
   xmlns:svg="http://www.w3.org/2000/svg"
   xmlns="http://www.w3.org/2000/svg"
   xmlns:sodipodi="http://sodipodi.sourceforge.net/DTD/sodipodi-0.dtd"
   xmlns:inkscape="http://www.inkscape.org/namespaces/inkscape"
   width="1100"
   height="188"
   viewBox="0 0 291.04166 49.741668"
   version="1.1"
   id="svg8"
   inkscape:version="0.92.4 (5da689c313, 2019-01-14)"
   sodipodi:docname="white1.svg">
  <defs
     id="defs2">
    <style
       type="text/css"
       id="style3328"><![CDATA[
    .fil2 {fill:#2873B9;fill-rule:nonzero}
    .fil3 {fill:#318A3E;fill-rule:nonzero}
    .fil0 {fill:#434242;fill-rule:nonzero}
    .fil4 {fill:#E22526;fill-rule:nonzero}
    .fil1 {fill:#F2BB0B;fill-rule:nonzero}
   ]]></style>
    <clipPath
       clipPathUnits="userSpaceOnUse"
       id="clipPath936">
      <path
         d="M 0,841.89 H 595.28 V 0 H 0 Z"
         id="path934"
         inkscape:connector-curvature="0" />
    </clipPath>
  </defs>
  <sodipodi:namedview
     id="base"
     pagecolor="#ffffff"
     bordercolor="#666666"
     borderopacity="1.0"
     inkscape:pageopacity="0.0"
     inkscape:pageshadow="2"
     inkscape:zoom="0.7819947"
     inkscape:cx="723.28094"
     inkscape:cy="42.848758"
     inkscape:document-units="px"
     inkscape:current-layer="layer1"
     showgrid="false"
     units="px"
     showguides="true"
     inkscape:guide-bbox="true"
     inkscape:window-width="1366"
     inkscape:window-height="705"
     inkscape:window-x="-8"
     inkscape:window-y="-8"
     inkscape:window-maximized="1">
    <sodipodi:guide
       position="52.781686,-20.977338"
       orientation="1,0"
       id="guide918"
       inkscape:locked="false" />
  </sodipodi:namedview>
  <metadata
     id="metadata5">
    <rdf:RDF>
      <cc:Work
         rdf:about="">
        <dc:format>image/svg+xml</dc:format>
        <dc:type
           rdf:resource="http://purl.org/dc/dcmitype/StillImage" />
        <dc:title></dc:title>
      </cc:Work>
    </rdf:RDF>
  </metadata>
  <g
     inkscape:label="Layer 1"
     inkscape:groupmode="layer"
     id="layer1"
     transform="translate(0,-247.25832)">
    <g
       id="g2448"
       transform="matrix(0.93664676,0,0,0.93664676,6.8188693,274.74679)">
      <path
         id="path3353"
         d="m 21.873804,-25.26905 c -1.1,-0.17 -2.23,-0.26 -3.39,-0.26 -1.15,0 -2.28,0.09 -3.38,0.26 v 7.13 c 2.38,1.25 4.65,2.69 6.77,4.3 v -11.42 z"
         class="fil1"
         inkscape:connector-curvature="0"
         style="clip-rule:evenodd;fill:#f2bb0b;fill-rule:nonzero;stroke-width:0.01;image-rendering:optimizeQuality;shape-rendering:geometricPrecision;text-rendering:geometricPrecision" />
      <path
         id="path3355"
         d="m -2.856196,-10.25905 c 7.1600002,0.93 13.66,3.99 18.83,8.54 1.17,-1.95 2.51,-3.79 4.02,-5.47 -5.47,-4.67 -12.1499998,-7.98 -19.49,-9.38 -1.44,1.89 -2.58,4.02 -3.36,6.32 z"
         class="fil2"
         inkscape:connector-curvature="0"
         style="clip-rule:evenodd;fill:#2873b9;fill-rule:nonzero;stroke-width:0.01;image-rendering:optimizeQuality;shape-rendering:geometricPrecision;text-rendering:geometricPrecision" />
      <path
         id="path3357"
         d="m -4.036196,-4.11905 c -0.02,0.38 -0.03,0.76 -0.03,1.15 0,2.01 0.27,3.96 0.76,5.81 8.5600002,1.6 15.42,8.03 17.64,16.35 1.35,0.25 2.73,0.39 4.15,0.39 0.97,0 1.91,-0.07 2.85,-0.19 -2.41,-12.4 -12.6599998,-22.04 -25.37,-23.52 z"
         class="fil3"
         inkscape:connector-curvature="0"
         style="clip-rule:evenodd;fill:#318a3e;fill-rule:nonzero;stroke-width:0.01;image-rendering:optimizeQuality;shape-rendering:geometricPrecision;text-rendering:geometricPrecision" />
      <path
         id="path3359"
         d="m 20.653804,2.84095 c 1.72,2.17 3.19,4.54 4.37,7.08 2.28,-7.45 8.32,-13.27 15.91,-15.24 -0.24,-2.3 -0.83,-4.51 -1.72,-6.55 -8.05,2.09 -14.75,7.52 -18.56,14.71 z"
         class="fil4"
         inkscape:connector-curvature="0"
         style="clip-rule:evenodd;fill:#e22526;fill-rule:nonzero;stroke-width:0.01;image-rendering:optimizeQuality;shape-rendering:geometricPrecision;text-rendering:geometricPrecision" />
    </g>
    <polygon
       style="clip-rule:evenodd;fill:#ffffff;fill-opacity:1;fill-rule:nonzero;image-rendering:optimizeQuality;shape-rendering:geometricPrecision;text-rendering:geometricPrecision"
       class="fil0"
       points="2349,5697 2942,5697 2151,7723 1633,7723 841,5697 1445,5697 1896,7044 "
       id="polygon3333"
       transform="matrix(0.01144912,0,0,0.01158141,43.440405,198.33614)" />
    <path
       style="clip-rule:evenodd;fill:#ffffff;fill-opacity:1;fill-rule:nonzero;stroke-width:0.01151507;image-rendering:optimizeQuality;shape-rendering:geometricPrecision;text-rendering:geometricPrecision"
       inkscape:connector-curvature="0"
       class="fil0"
       d="m 89.019295,269.17964 c -2.70208,0 -4.46519,1.95726 -4.98041,4.95684 h 9.834771 c -0.389311,-2.95326 -2.106671,-4.95684 -4.854361,-4.95684 z m 11.128325,9.07982 H 84.130455 c 0.64125,2.99959 2.70198,4.56308 5.63299,4.56308 2.18668,0 3.77814,-0.69488 5.587192,-2.38577 l 3.743729,3.34702 c -2.152458,2.69848 -5.24361,4.34304 -9.411171,4.34304 -6.91517,0 -12.02144,-4.91052 -12.02144,-12.03309 v -0.0811 c 0,-6.64773 4.68264,-12.12574 11.38043,-12.12574 7.693696,0 11.208575,6.03392 11.208575,12.63533 v 0.0926 c 0,0.64856 -0.0463,1.04233 -0.0926,1.65614 z"
       id="path3335" />
    <path
       style="clip-rule:evenodd;fill:#ffffff;fill-opacity:1;fill-rule:nonzero;stroke-width:0.01151507;image-rendering:optimizeQuality;shape-rendering:geometricPrecision;text-rendering:geometricPrecision"
       inkscape:connector-curvature="0"
       class="fil0"
       d="m 115.08868,288.12683 c -6.91518,0 -11.98708,-5.38536 -11.98708,-12.03309 v -0.0811 c 0,-6.64773 5.02608,-12.12574 12.06723,-12.12574 4.33923,0 7.04121,1.47084 9.1936,3.90294 l -3.99573,4.34302 c -1.46543,-1.56349 -2.91951,-2.55949 -5.24365,-2.55949 -3.26292,0 -5.57563,2.90694 -5.57563,6.34662 v 0.0926 c 0,3.56707 2.27828,6.42768 5.83902,6.42768 2.1982,0 3.69798,-0.96125 5.28942,-2.47842 l 3.82396,3.91452 c -2.23256,2.47842 -4.80861,4.26196 -9.41114,4.26196 z"
       id="path3337" />
    <path
       style="clip-rule:evenodd;fill:#ffffff;fill-opacity:1;fill-rule:nonzero;stroke-width:0.01151507;image-rendering:optimizeQuality;shape-rendering:geometricPrecision;text-rendering:geometricPrecision"
       inkscape:connector-curvature="0"
       class="fil0"
       d="m 135.66266,287.99943 c -3.99567,0 -6.69769,-1.60982 -6.69769,-6.99517 v -11.03709 h -2.74776 v -5.64014 h 2.74776 v -5.95285 h 6.526 v 5.95285 h 5.41541 v 5.64014 h -5.41541 v 9.94843 c 0,1.51717 0.64108,2.25838 2.10667,2.25838 1.2021,0 2.27833,-0.30111 3.21713,-0.82228 v 5.30429 c -1.37384,0.82228 -2.9653,1.34344 -5.15211,1.34344 z"
       id="path3339" />
    <path
       style="clip-rule:evenodd;fill:#ffffff;fill-opacity:1;fill-rule:nonzero;stroke-width:0.01151507;image-rendering:optimizeQuality;shape-rendering:geometricPrecision;text-rendering:geometricPrecision"
       inkscape:connector-curvature="0"
       class="fil0"
       d="m 158.38906,270.78945 c -4.33916,0 -7.00684,2.65214 -7.00684,8.21123 v 8.60498 h -6.52591 v -23.29022 h 6.52591 v 4.69048 c 1.33961,-3.21964 3.48051,-5.30429 7.35037,-5.11899 v 6.90252 z"
       id="path3341" />
    <path
       style="clip-rule:evenodd;fill:#ffffff;fill-opacity:1;fill-rule:nonzero;stroke-width:0.01151507;image-rendering:optimizeQuality;shape-rendering:geometricPrecision;text-rendering:geometricPrecision"
       inkscape:connector-curvature="0"
       class="fil0"
       d="m 174.48649,278.22472 c -1.12201,-0.52116 -2.57608,-0.86861 -4.16748,-0.86861 -2.79357,0 -4.5109,1.1234 -4.5109,3.20806 v 0.0926 c 0,1.78353 1.46551,2.82586 3.56062,2.82586 3.05688,0 5.11776,-1.70246 5.11776,-4.08824 z m -0.12597,9.39252 v -2.52475 c -1.59139,1.78355 -3.7782,2.95327 -6.96102,2.95327 -4.33923,0 -7.89981,-2.52475 -7.89981,-7.12257 v -0.0926 c 0,-5.08424 3.82397,-7.42369 9.28514,-7.42369 2.32421,0 3.99574,0.39377 5.62149,0.96126 v -0.39377 c 0,-2.73321 -1.67153,-4.25038 -4.93448,-4.25038 -2.49593,0 -4.24763,0.47484 -6.35422,1.26238 l -1.63723,-5.03792 c 2.53021,-1.13498 5.02613,-1.87619 8.93023,-1.87619 7.12137,0 10.25833,3.7408 10.25833,10.04108 v 13.51552 h -6.30843 z"
       id="path3343" />
    <path
       style="clip-rule:evenodd;fill:#ffffff;fill-opacity:1;fill-rule:nonzero;stroke-width:0.01151507;image-rendering:optimizeQuality;shape-rendering:geometricPrecision;text-rendering:geometricPrecision"
       inkscape:connector-curvature="0"
       class="fil0"
       d="m 214.04296,287.60566 v -12.99434 c 0,-3.12698 -1.37387,-4.7368 -3.82394,-4.7368 -2.45008,0 -3.94995,1.60982 -3.94995,4.7368 v 12.99434 h -6.52589 v -12.99434 c 0,-3.12698 -1.37396,-4.7368 -3.82407,-4.7368 -2.45011,0 -3.94993,1.60982 -3.94993,4.7368 v 12.99434 h -6.5259 v -23.29022 h 6.5259 v 3.30071 c 1.49982,-1.95727 3.48053,-3.72922 6.78939,-3.72922 3.01109,0 5.28936,1.34344 6.48007,3.69447 2.02656,-2.38577 4.43088,-3.69447 7.56782,-3.69447 4.85445,0 7.77396,2.95326 7.77396,8.55867 v 15.16006 h -6.5259 z"
       id="path3345" />
    <path
       style="clip-rule:evenodd;fill:#ffffff;fill-opacity:1;fill-rule:nonzero;stroke-width:0.01151507;image-rendering:optimizeQuality;shape-rendering:geometricPrecision;text-rendering:geometricPrecision"
       inkscape:connector-curvature="0"
       class="fil0"
       d="m 225.68677,264.31544 h 6.52591 v 23.29022 h -6.52591 z m 0,23.29022 z m -0.17181,-31.72148 h 6.88095 v 5.87177 h -6.88095 z"
       id="path3347" />
    <path
       style="clip-rule:evenodd;fill:#ffffff;fill-opacity:1;fill-rule:nonzero;stroke-width:0.01151507;image-rendering:optimizeQuality;shape-rendering:geometricPrecision;text-rendering:geometricPrecision"
       inkscape:connector-curvature="0"
       class="fil0"
       d="m 252.06537,287.60566 v -12.99434 c 0,-3.12698 -1.46548,-4.7368 -3.96135,-4.7368 -2.48449,0 -4.07586,1.60982 -4.07586,4.7368 v 12.99434 h -6.52596 v -23.29022 h 6.52596 v 3.30071 c 1.49977,-1.95727 3.43469,-3.72922 6.74351,-3.72922 4.93454,0 7.8197,3.30071 7.8197,8.63974 v 15.07899 z"
       id="path3349" />
    <path
       style="clip-rule:evenodd;fill:#ffffff;fill-opacity:1;fill-rule:nonzero;stroke-width:0.01151507;image-rendering:optimizeQuality;shape-rendering:geometricPrecision;text-rendering:geometricPrecision"
       inkscape:connector-curvature="0"
       class="fil0"
       d="m 280.10417,275.92002 c 0,-3.8682 -2.53026,-6.42769 -5.58718,-6.42769 -3.04543,0 -5.62146,2.52475 -5.62146,6.42769 v 0.0926 c 0,3.86819 2.57603,6.42768 5.62146,6.42768 3.04548,0 5.58718,-2.57107 5.58718,-6.42768 z m -0.0811,11.68564 v -3.34702 c -1.59141,2.1773 -3.77821,3.77553 -7.17855,3.77553 -5.36962,0 -10.48736,-4.26195 -10.48736,-12.03308 v -0.0926 c 0,-7.78271 5.02615,-12.03309 10.48736,-12.03309 3.4805,0 5.62147,1.60981 7.17855,3.47442 v -11.46559 h 6.52597 v 31.72148 z"
       id="path3351" />
  </g>
</svg>
